<?xml version="1.0" encoding="UTF-8" standalone="no"?>
<!-- Created with Inkscape (http://www.inkscape.org/) -->

<svg
   xmlns:dc="http://purl.org/dc/elements/1.1/"
   xmlns:cc="http://creativecommons.org/ns#"
   xmlns:rdf="http://www.w3.org/1999/02/22-rdf-syntax-ns#"
   xmlns:svg="http://www.w3.org/2000/svg"
   xmlns="http://www.w3.org/2000/svg"
   xmlns:sodipodi="http://sodipodi.sourceforge.net/DTD/sodipodi-0.dtd"
   xmlns:inkscape="http://www.inkscape.org/namespaces/inkscape"
   width="24.703753mm"
   height="25.187376mm"
   viewBox="0 0 24.703753 25.187376"
   version="1.1"
   id="svg1059"
   inkscape:version="0.92.3 (2405546, 2018-03-11)"
   sodipodi:docname="burgerboatsvg--test.svg">
  <defs
     id="defs1053">
    <clipPath
       clipPathUnits="userSpaceOnUse"
       id="clipPath138">
      <path
         d="M 0,595.28 H 269.29 V 0 H 0 Z"
         id="path136"
         inkscape:connector-curvature="0" />
    </clipPath>
  </defs>
  <sodipodi:namedview
     id="base"
     pagecolor="#ffffff"
     bordercolor="#666666"
     borderopacity="1.0"
     inkscape:pageopacity="0.0"
     inkscape:pageshadow="2"
     inkscape:zoom="2.8"
     inkscape:cx="32.659353"
     inkscape:cy="10.525743"
     inkscape:document-units="mm"
     inkscape:current-layer="g134"
     showgrid="false"
     inkscape:window-width="1920"
     inkscape:window-height="1025"
     inkscape:window-x="0"
     inkscape:window-y="23"
     inkscape:window-maximized="1" />
  <metadata
     id="metadata1056">
    <rdf:RDF>
      <cc:Work
         rdf:about="">
        <dc:format>image/svg+xml</dc:format>
        <dc:type
           rdf:resource="http://purl.org/dc/dcmitype/StillImage" />
        <dc:title></dc:title>
      </cc:Work>
    </rdf:RDF>
  </metadata>
  <g
     inkscape:label="Layer 1"
     inkscape:groupmode="layer"
     id="layer1"
     transform="translate(-21.157349,-11.466442)">
    <g
       transform="matrix(0.35277777,0,0,-0.35277777,-35.561844,201.06207)"
       id="g132">
      <g
         id="g134"
         clip-path="url(#clipPath138)"
         transform="translate(1.3392857,1.4464286)">
        <g
           id="g140"
           transform="translate(187.81763,484.28991)">
          <path
             d="m 0,0 c -1.175,-0.529 -2.187,-1.014 -3.223,-1.445 -4.019,-1.672 -8.095,-3.227 -12.054,-5.018 -3.443,-1.557 -6.946,-2.707 -10.779,-2.838 -1.338,-0.045 -1.98,-0.607 -2.267,-1.873 -0.225,-0.991 0.254,-1.663 1.165,-2.118 0.38,-0.19 0.763,-0.413 1.068,-0.697 0.599,-0.557 1.185,-1.138 1.683,-1.776 0.126,-0.16 0.172,-0.587 0.046,-0.858 -0.048,-0.103 -0.666,-0.199 -0.72,-0.142 -0.187,0.198 -0.334,0.451 -0.428,0.707 -0.184,0.499 -0.322,1.013 -0.48,1.521 -0.204,-0.028 -0.146,-0.02 -0.35,-0.048 10e-4,-0.715 -0.048,-1.434 0.01,-2.144 0.121,-1.491 0.664,-2.018 2.202,-1.899 2.083,0.16 3.578,1.392 4.7,2.939 1.49,2.053 4.353,1.902 8.43,2.993 4.074,1.09 7.484,2.737 12.522,5.683 2.373,1.388 4.07,0.361 5.651,0.19 0.461,-0.05 1.528,0.68 1.421,1.011 -0.085,0.263 -0.892,2.873 -0.816,3.086 -1.284,1.074 -4.206,3.054 -5.372,3.834 z"
             style="fill:#ffffff;fill-opacity:1;fill-rule:nonzero;stroke:none"
             id="path142"
             inkscape:connector-curvature="0" />
        </g>
        <g
           id="g144"
           transform="translate(206.43203,484.16171)">
          <path
             d="M 0,0 C 0.637,0.47 0.837,2.37 1.464,0.802 1.847,1.638 2.928,3.067 2.788,1.389 3.35,1.221 3.656,2.833 4.252,3.102 4.712,3.309 4.884,3.211 4.884,2.187 6.03,2.684 6.714,4.911 7.236,3.04 7.97,3.666 8.652,5.998 9.221,4.007 c 0.44,0.198 0.902,1.563 1.081,1.707 0.39,0.314 0.591,0.217 0.853,-0.683 0.967,0.683 1.138,2.958 1.877,1.252 0.816,0.381 1.934,2.958 2.097,1.512 0.65,0.345 1.658,2.827 2.05,1.445 2.464,2.163 4.93,5.914 5.242,10.71 C 12.96,13.413 8.636,11.88 5.904,10.557 1.908,8.623 -2.308,6.798 -7.031,4.738 -8.148,4.251 -8.78,3.966 -9.135,3.801 l 8.313,-3.866 C -0.447,0.603 -0.284,1.206 0,0"
             style="fill:#ffffff;fill-opacity:1;fill-rule:nonzero;stroke:none"
             id="path146"
             inkscape:connector-curvature="0" />
        </g>
        <g
           id="g148"
           transform="translate(223.40133,475.45921)">
          <path
             d="m 0,0 c -3.308,0.889 -8.335,2.941 -18.667,8.024 -0.266,0.132 -14.895,7.363 -15.518,7.637 -1.14,0.5 -2.927,0.984 -3.997,1.089 -2.471,0.244 -1.314,0.39 -1.591,1.026 -0.15,0.347 -0.583,0.658 -0.938,0.702 -1.501,0.184 -1.737,0.037 -2.981,0.413 -3.108,0.937 -4.671,0.855 -13.354,8.905 -3.554,3.294 -2.353,1.268 -0.836,-0.39 2.117,-2.313 3.658,-4.076 8.135,-7.461 1.208,-0.913 0.322,-0.721 -0.109,-0.642 -0.121,0.022 -0.234,0.072 -0.334,0.147 -0.772,0.577 -3.72,2.094 -8.198,7.273 -3.639,4.208 -1.863,0.764 -0.905,-0.49 2.561,-3.35 5.014,-5.419 8.42,-7.898 1.539,-1.121 -0.127,-0.544 -0.32,-0.42 -4.076,2.624 -5.592,3.964 -8.999,7.981 -2.549,3.005 -1.787,1.166 -0.617,-0.661 1.882,-2.519 4.443,-5.478 8.885,-8.213 1.183,-0.729 0.015,-0.605 -0.422,-0.409 -2.4,1.079 -5.327,3.256 -9.14,8.12 -2.357,3.007 -2.071,1.505 -0.695,-0.651 1.856,-2.91 6.481,-8.691 11.454,-10.755 1.83,-0.759 3.632,-1.297 5.859,-0.724 1.559,0.402 1.698,2.223 5.303,1.899 2.389,-0.216 5.301,-1.938 5.302,-1.938 2.241,-1.724 9.154,-7.335 9.154,-7.335 5.282,-3.286 9.753,-7.406 15.124,-10.647 1.525,-0.921 6.349,-3.95 9.406,-5.233 1.383,-0.58 2.111,-0.012 2.337,1.982 0.023,0.208 0.023,0.419 0.008,0.632 -0.04,0.584 0.325,1.1 0.857,1.238 C 3.67,-6.526 4.902,-5.9 5.697,-4.338 7.306,-1.173 3.308,-0.889 0,0"
             style="fill:#ffffff;fill-opacity:1;fill-rule:nonzero;stroke:none"
             id="path150"
             inkscape:connector-curvature="0" />
        </g>
        <g
           id="g152"
           transform="translate(222.29103,468.86401)">
          <path
             d="m 0,0 c -3.923,1.505 -6.771,3.248 -11.205,5.899 -5.383,3.214 -14.338,9.454 -19.943,13.205 -4.72,3.158 0.458,-0.706 3.191,-2.57 C -21.994,12.371 -13.934,5.698 -8.595,2.55 -4.786,0 -1.982,-0.922 0.533,-2.035 v 0 C 1.424,-2.413 0.458,-0.193 2.166,-0.141 2.601,-0.128 2.941,-0.078 3.23,0 4.076,0.228 4.486,0.698 5.553,1.196 3.292,2.722 1.301,-0.499 0,0"
             style="fill:#231f20;fill-opacity:1;fill-rule:nonzero;stroke:none"
             id="path154"
             inkscape:connector-curvature="0" />
        </g>
        <g
           id="g156"
           transform="translate(200.79713,486.00661)">
          <path
             d="m 0,0 0.956,-0.608 4.24,2.091 c 0,0 5.865,2.941 7.815,3.933 2.274,1.156 6.281,3.224 8.483,5.673"
             style="fill:#231f20;fill-opacity:1;fill-rule:nonzero;stroke:none"
             id="path158"
             inkscape:connector-curvature="0" />
        </g>
        <g
           id="g160"
           transform="translate(196.17413,509.33791)">
          <path
             d="M 0,0 C 1.53,0 3.011,0.165 4.422,0.468 H -4.422 C -3.011,0.165 -1.53,0 0,0"
             style="fill:#292526;fill-opacity:1;fill-rule:nonzero;stroke:none"
             id="path162"
             inkscape:connector-curvature="0" />
        </g>
        <g
           id="g164"
           transform="translate(210.35153,503.61971)">
          <path
             d="M 0,0 C 2.14,0.63 2.748,1.909 2.876,3.409 2.912,3.831 2.807,4.471 2.346,4.888 2.125,4.748 1.896,4.626 1.667,4.529 0.396,3.99 -1.109,3.666 -1.871,2.515 -2.803,3.157 -4.097,2.813 -5.066,2.23 -6.036,1.647 -6.899,0.839 -7.986,0.527 -8.815,0.289 -9.731,0.37 -10.505,0.75 c -0.376,0.184 -0.723,0.436 -1.128,0.541 -0.368,0.094 -0.755,0.058 -1.134,0.022 -2.287,-0.222 -4.575,-0.443 -6.862,-0.664 -0.029,0.778 -0.993,1.18 -1.767,1.09 -0.774,-0.09 -1.506,-0.47 -2.285,-0.452 -0.779,0.019 -1.633,0.742 -1.342,1.465 -1.85,0.177 -3.645,0.889 -5.113,2.027 -0.266,0.207 -0.524,0.436 -0.751,0.687 -0.819,-0.343 -0.829,-1.5 -0.786,-2.259 0.079,-1.388 0.416,-3.493 2.522,-4.071 2.177,-0.596 4.175,-1.145 6.314,-1.821 1.978,-0.625 4.835,-1.05 8.029,-0.997 0.274,0.005 0.543,0.053 0.817,0.058 1.304,0.025 6.185,0.608 6.94,0.818 C -3.906,-1.932 -2.559,-1.592 0,0"
             style="fill:#ffffff;fill-opacity:1;fill-rule:nonzero;stroke:none"
             id="path166"
             inkscape:connector-curvature="0" />
        </g>
        <g
           id="g168"
           transform="translate(186.17133,517.60931)">
          <path
             d="M 0,0 C 2.824,-1.321 3.81,-3.353 4.146,-4.445 4.244,-4.764 4.64,-4.861 4.882,-4.632 7.05,-2.584 9.553,-1.585 12.123,-1.051 7.892,-1.197 3.683,-0.778 0,0"
             style="fill:#ffffff;fill-opacity:1;fill-rule:nonzero;stroke:none"
             id="path170"
             inkscape:connector-curvature="0" />
        </g>
        <g
           id="g172"
           transform="translate(207.86143,517.99271)">
          <path
             d="m 0,0 c -0.987,-0.283 -1.997,-0.521 -3.021,-0.718 1.528,0.102 2.997,0.218 4.344,0.481 2.824,0.551 6.334,0.748 4.892,0.657 L 3.133,1.089 C 3.035,1.047 2.933,1.005 2.827,0.963 1.912,0.597 0.966,0.277 0,0"
             style="fill:#ffffff;fill-opacity:1;fill-rule:nonzero;stroke:none"
             id="path174"
             inkscape:connector-curvature="0" />
        </g>
        <g
           id="g176"
           transform="translate(207.72293,518.95001)">
          <path
             d="m 0,0 c 0.966,0.277 1.912,0.596 2.827,0.963 0.106,0.042 0.208,0.084 0.306,0.126 1.626,0.689 2.302,1.376 2.305,4.282 0.007,7.144 -9.183,11.669 -17.313,11.669 -8.176,0 -18.054,-4.631 -17.351,-11.785 0.22,-2.24 0.426,-3.146 0.813,-3.579 0.324,-0.361 0.774,-0.394 1.463,-0.595 0.117,-0.034 0.24,-0.072 0.371,-0.118 0.709,-0.249 1.46,-0.484 2.246,-0.703 0.843,-0.234 1.727,-0.45 2.643,-0.643 3.683,-0.779 7.892,-1.198 12.123,-1.051 2.2,0.076 4.405,0.304 6.546,0.716 C -1.997,-0.521 -0.987,-0.283 0,0"
             style="fill:#ffffff;fill-opacity:1;fill-rule:nonzero;stroke:none"
             id="path178"
             inkscape:connector-curvature="0" />
        </g>
        <g
           id="g180"
           transform="translate(207.90633,514.14101)">
          <path
             d="m 0,0 c -0.201,-0.096 -0.432,-0.098 -0.652,-0.134 -0.193,-0.031 -0.379,-0.088 -0.566,-0.144 -0.663,-0.202 -1.326,-0.404 -1.989,-0.606 -0.106,-0.032 -0.221,-0.065 -0.328,-0.034 -0.068,0.019 -0.127,0.063 -0.191,0.091 -0.347,0.151 -0.705,-0.151 -1.044,-0.32 -0.471,-0.236 -1.025,-0.217 -1.551,-0.193 -0.233,0.01 -0.465,0.021 -0.698,0.032 -0.587,0.027 -1.185,0.052 -1.756,-0.091 0.486,0.459 1.234,0.437 1.896,0.527 1.292,0.175 2.475,0.868 3.771,1.004 0.348,0.037 0.722,0.04 1.005,0.245 0.078,0.056 0.156,0.129 0.252,0.128 C -1.76,0.504 -1.686,0.436 -1.606,0.39 -0.982,0.027 -0.231,1.073 0.429,0.781 0.468,0.466 0.287,0.136 0,0 M 4.367,0.076 4.985,1.899 2.376,2.352 c -5.335,-0.899 -13.485,0.071 -19.008,-3.818 -0.268,-0.189 -1.158,-0.384 -1.282,-0.106 -0.491,1.103 -1.597,3.184 -5.266,4.116 -0.284,0.072 -1.739,0.699 -3.804,0.699 -0.284,0 -0.371,-0.029 -1.112,-0.364 -0.254,0.274 -1.024,0.89 -1.024,-0.203 0,-0.169 -0.045,-0.689 0.209,-0.88 -0.806,-0.476 0.309,-1.183 0.294,-1.74 -0.004,-0.178 0.353,-0.803 1.164,-0.383 -0.375,-0.777 0.539,-0.423 0.937,-0.52 -0.085,-0.548 0.767,-0.731 1.193,-0.621 -0.171,-0.438 1.096,-1.035 1.436,-0.561 -0.042,-0.584 1.034,-1.045 1.545,-0.68 0.128,-0.548 1.441,-0.632 1.681,-0.098 0.299,-0.397 0.837,-0.94 1.513,-0.486 0.054,-0.652 1.591,-1.032 2.044,-0.454 -0.013,-0.687 1.065,-0.854 1.363,-0.198 0.343,-0.719 1.231,-0.199 1.727,0.081 0.457,-0.351 1.51,-0.906 2.017,-0.597 0.462,-0.535 1.512,-0.312 1.92,0.182 0.468,-0.655 1.488,-0.147 1.739,0.358 0.734,-0.775 2.395,-0.635 2.938,0.247 0.351,-0.716 2.027,-0.795 2.403,-0.275 0.579,-0.821 0.793,-0.02 1.271,0.024 0.688,-0.327 0.597,0.375 1.283,0.229 1.202,0.146 1.07,0.506 1.276,1.004 0.454,-0.124 0.29,0.468 0.676,0.703 0.393,0.24 0.672,0.618 0.676,1.035 0.64,-0.347 1.429,-0.24 1.47,0.391 1.15,-0.44 0.514,0.392 0.712,0.639"
             style="fill:#ffffff;fill-opacity:1;fill-rule:nonzero;stroke:none"
             id="path182"
             inkscape:connector-curvature="0" />
        </g>
        <g
           id="g184"
           transform="translate(178.20683,518.37651)">
          <path
             d="M 0,0 C 0.282,0.237 0.68,0.53 0.979,0.749 1.489,1.124 1.936,0.469 2.594,0.442 3.252,0.415 3.891,0.246 4.523,0.078 5.174,-0.096 5.825,-0.27 6.476,-0.443 3.954,-0.373 1.931,-0.196 -0.45,-0.993 -0.456,-0.848 -0.282,-0.237 0,0"
             style="fill:#ffffff;fill-opacity:1;fill-rule:nonzero;stroke:none"
             id="path186"
             inkscape:connector-curvature="0" />
        </g>
        <g
           id="g188"
           transform="translate(182.98493,510.46681)">
          <path
             d="M 0,0 C 0.009,0.076 -0.011,0.155 -0.054,0.218 -0.201,0.217 -0.348,0.216 -0.494,0.214 -0.43,0.154 -0.331,0.132 -0.247,0.16 c -0.044,-0.181 -0.088,-0.362 -0.131,-0.543 0.073,0 0.146,0 0.218,0 0.029,0.171 0.084,0.337 0.162,0.491"
             style="fill:none;stroke:#ffffff;stroke-width:1;stroke-linecap:butt;stroke-linejoin:miter;stroke-miterlimit:10;stroke-dasharray:none;stroke-opacity:1"
             id="path190"
             inkscape:connector-curvature="0" />
        </g>
        <g
           id="g192"
           transform="translate(212.92803,511.45611)">
          <path
             d="m 0,0 c -0.075,-0.109 -0.14,-0.245 -0.093,-0.369 -0.123,0.154 -0.15,0.379 -0.068,0.558 0.059,0.127 0.168,0.269 0.097,0.389 C 0.058,0.628 0.185,0.482 0.175,0.35 0.166,0.218 0.075,0.109 0,0 m -1.768,-1.443 c 0.357,0.424 0.737,0.963 0.549,1.485 0.124,-0.355 0.248,-0.709 0.371,-1.063 -0.307,-0.141 -0.613,-0.282 -0.92,-0.422 m -1.766,-0.98 c -0.155,-0.036 -0.318,-0.011 -0.477,-0.026 -0.424,-0.04 -0.765,-0.35 -1.073,-0.644 0.186,0.321 0.371,0.642 0.557,0.964 0.067,0.117 0.145,0.242 0.273,0.285 0.221,0.074 0.452,-0.14 0.681,-0.097 0.053,0.01 0.104,0.034 0.158,0.033 0.098,-0.004 0.177,-0.097 0.182,-0.194 0.01,-0.159 -0.145,-0.285 -0.301,-0.321 m -5.437,-2.323 c -0.056,-0.027 -0.118,-0.041 -0.185,-0.034 0.064,0 0.126,0.012 0.185,0.034 0.162,0.079 0.282,0.274 0.366,0.448 C -8.63,-4.5 -8.782,-4.675 -8.971,-4.746 m -2.003,-0.52 c -0.527,-0.164 -1.155,0.164 -1.322,0.69 0.236,-0.338 0.747,-0.381 1.121,-0.206 0.374,0.174 0.643,0 0.899,0.324 0.161,-0.528 -0.171,-0.644 -0.698,-0.808 m -3.364,0.804 c 0.412,0.533 1.183,0.652 1.193,0.077 -0.378,0.17 -0.84,0.14 -1.193,-0.077 m -2.356,-0.505 c -0.088,-0.076 -0.215,-0.146 -0.21,-0.263 -0.061,0.022 -0.122,0.044 -0.183,0.065 0.023,0.2 0.156,0.372 0.199,0.569 0.043,0.196 -0.083,0.461 -0.281,0.426 -0.054,0.059 0.05,0.137 0.13,0.137 0.215,0 0.423,-0.145 0.497,-0.347 0.075,-0.201 0.012,-0.446 -0.152,-0.587 m -2.536,0.408 c -0.368,-0.137 -0.697,-0.364 -1.049,-0.538 0,0 -0.167,-0.073 -0.235,-0.105 -0.039,0.008 -0.546,-0.069 -0.88,-0.143 0.432,0.148 0.798,0.439 1.173,0.699 0.376,0.261 0.789,0.503 1.245,0.53 0.457,0.028 0.959,-0.224 1.076,-0.666 -0.298,0.378 -0.879,0.391 -1.33,0.223 m -3.388,0.179 c -0.048,-0.065 -0.105,-0.129 -0.182,-0.155 -0.184,-0.063 -0.379,0.189 -0.272,0.352 0.044,0.066 0.119,0.106 0.18,0.158 0.27,0.23 0.182,0.744 -0.149,0.872 0.272,0.029 0.53,-0.19 0.601,-0.454 0.071,-0.264 -0.017,-0.552 -0.178,-0.773 m -2.584,0.129 c -0.362,-0.361 -1.034,-0.183 -1.323,0.239 -0.202,0.295 -0.257,0.658 -0.24,1.021 -0.041,0.157 0.007,0.155 0,0 0.06,-0.228 0.229,-0.442 0.447,-0.544 0.368,-0.173 0.802,-0.109 1.19,0.01 -0.113,-0.553 0.406,-1.022 -0.074,-0.726 m -3.599,1.425 c -0.157,0.45 -0.277,0.656 -0.373,0.694 0.017,-0.123 -0.089,-0.225 -0.208,-0.275 -0.03,-0.114 -0.056,-0.255 -0.078,-0.417 -0.012,-0.085 -0.187,-0.006 -0.236,-0.077 -0.072,-0.102 0.012,-0.274 -0.084,-0.354 -0.292,0.094 -0.34,0.574 -0.073,0.724 0.126,0.07 0.279,0.067 0.418,0.106 0.018,0.004 0.036,0.011 0.053,0.018 0.053,0.201 0.12,0.31 0.208,0.275 0,0.001 0,0.002 0,0.003 -0.015,0.099 -0.121,0.175 -0.22,0.156 0.21,0.024 0.43,-0.075 0.551,-0.249 0.121,-0.174 0.138,-0.415 0.042,-0.604 m -4.491,1.849 c 0.919,0.316 2.025,-0.034 2.595,-0.822 -0.614,0.706 -1.661,0.794 -2.595,0.822 M 1.102,0.816 C 0.838,1.552 0.144,1.936 -0.64,2.147 -0.369,1.666 -1.219,0.042 -2.856,0.927 c 0.631,-0.916 -0.73,-2.414 -1.66,-2.117 -0.209,-0.59 -0.799,-0.541 -1.008,-1.131 -1.05,-0.37 -2.253,-0.587 -2.594,-0.299 -0.834,-0.388 -2.083,-0.523 -2.439,0.326 -0.552,-1.046 -2.238,-1.211 -2.983,-0.294 -0.256,-0.598 -1.258,-1.257 -1.681,-0.763 -0.59,0.688 -3.03,-0.167 -4.083,0.832 -0.503,-0.332 -1.571,-1.067 -1.712,-0.482 -0.16,0.661 -0.945,0.151 -1.406,0.284 -0.735,0.212 -1.519,-0.437 -2.206,0.636 -0.301,0.471 -1.121,0.343 -1.425,0.813 -0.243,-0.633 -1.581,-0.774 -1.797,-0.386 -0.62,1.119 -1.789,1.129 -2.837,1.485 -0.685,0.233 -1.329,1.055 -2.61,1.396 -0.189,0.05 -0.303,0.266 -0.443,0.423 -0.465,-0.401 -0.664,-1.128 -0.516,-1.749 0.112,-0.474 0.375,-0.888 0.704,-1.252 0.227,-0.252 0.485,-0.48 0.752,-0.687 1.468,-1.139 3.263,-1.851 5.112,-2.027 -0.29,-0.723 0.564,-1.447 1.342,-1.465 0.779,-0.019 1.512,0.362 2.285,0.452 0.774,0.09 1.739,-0.312 1.767,-1.09 2.135,0.206 4.08,0.14 6.863,0.409 0.378,0.036 0.765,0.327 1.134,0.232 0.404,-0.104 0.752,-0.357 1.127,-0.541 0.774,-0.379 1.69,-0.46 2.519,-0.222 1.088,0.312 1.951,1.119 2.92,1.703 0.97,0.583 2.263,0.927 3.195,0.285 0.763,1.151 2.267,1.475 3.538,2.014 0.229,0.097 0.459,0.218 0.679,0.359 1.002,0.638 1.803,1.679 1.421,2.745"
             style="fill:#ffffff;fill-opacity:1;fill-rule:nonzero;stroke:none"
             id="path194"
             inkscape:connector-curvature="0" />
        </g>
        <g
           id="g196"
           transform="translate(183.23303,508.32631)">
          <path
             d="M 0,0 C 0.142,-0.099 0.35,0.065 0.344,0.238 0.338,0.41 0.195,0.548 0.044,0.631 -0.113,0.718 -0.298,0.767 -0.474,0.733 -0.65,0.698 -0.813,0.567 -0.851,0.392 -0.588,0.421 -0.282,0.38 -0.127,0.164 -0.087,0.108 -0.057,0.04 0,0 Z"
             style="fill:none;stroke:#ffffff;stroke-width:1;stroke-linecap:butt;stroke-linejoin:miter;stroke-miterlimit:10;stroke-dasharray:none;stroke-opacity:1"
             id="path198"
             inkscape:connector-curvature="0" />
        </g>
        <g
           id="g200"
           transform="translate(168.47003,471.05761)">
          <path
             d="m 0,0 c 0,0 1.829,0.886 3.633,1.292 1.954,0.439 6.529,1.268 9.372,2.414 2.956,1.191 7.758,5.229 9.62,6.017 C 24.488,10.51 17.61,8.429 15.107,6.413 13.3,4.958 12.448,4.355 9.334,3.706 3.956,2.584 3.033,2.618 0,0"
             style="fill:#292526;fill-opacity:1;fill-rule:nonzero;stroke:none"
             id="path202"
             inkscape:connector-curvature="0" />
        </g>
      </g>
    </g>
  </g>
</svg>
